<svg width="13" height="13" viewBox="0 0 13 13" fill="none" xmlns="http://www.w3.org/2000/svg">
<path d="M9.3125 5.54687C9.13542 5.54687 8.98698 5.48698 8.86719 5.36719C8.7474 5.2474 8.6875 5.09896 8.6875 4.92187C8.6875 4.74479 8.7474 4.59635 8.86719 4.47656C8.98698 4.35677 9.13542 4.29687 9.3125 4.29687C9.48958 4.29687 9.63802 4.35677 9.75781 4.47656C9.87761 4.59635 9.9375 4.74479 9.9375 4.92187C9.9375 5.09896 9.87761 5.2474 9.75781 5.36719C9.63802 5.48698 9.48958 5.54687 9.3125 5.54687ZM7.875 4.04687L7.28125 3.4375C7.55208 3.16667 7.86269 2.95573 8.21308 2.80469C8.56348 2.65365 8.93066 2.57812 9.31464 2.57812C9.69863 2.57812 10.0651 2.65365 10.4141 2.80469C10.763 2.95573 11.0729 3.16667 11.3438 3.4375L10.75 4.04687C10.5521 3.84896 10.3319 3.69792 10.0895 3.59375C9.84717 3.48958 9.58816 3.4375 9.3125 3.4375C9.03685 3.4375 8.77783 3.48958 8.53545 3.59375C8.29307 3.69792 8.07292 3.84896 7.875 4.04687ZM6.67188 2.8125L6.07813 2.21875C6.51563 1.78125 7.01042 1.44531 7.5625 1.21094C8.11459 0.976562 8.69792 0.859375 9.3125 0.859375C9.92709 0.859375 10.5104 0.976562 11.0625 1.21094C11.6146 1.44531 12.1094 1.78125 12.5469 2.21875L11.9531 2.8125C11.5987 2.45751 11.1941 2.18647 10.7391 1.99939C10.2842 1.8123 9.80765 1.71875 9.3096 1.71875C8.81153 1.71875 8.33811 1.81469 7.88933 2.00658C7.44054 2.19846 7.03472 2.4671 6.67188 2.8125ZM11.4219 12.125C10.151 12.125 8.88802 11.8125 7.63281 11.1875C6.37761 10.5625 5.25 9.75 4.25 8.75C3.25 7.75 2.4375 6.6224 1.8125 5.36719C1.1875 4.11198 0.875 2.84896 0.875 1.57812C0.875 1.37723 0.941963 1.20982 1.07589 1.07589C1.20982 0.941963 1.37723 0.875 1.57813 0.875H3.76563C3.90741 0.875 4.034 0.924479 4.14541 1.02344C4.2568 1.1224 4.32813 1.25521 4.35938 1.42187L4.78125 3.39062C4.80208 3.53646 4.79948 3.66927 4.77344 3.78906C4.7474 3.90885 4.69271 4.01042 4.60938 4.09375L3.04688 5.67187C3.63021 6.64062 4.28385 7.48437 5.00781 8.20312C5.73177 8.92187 6.55208 9.53125 7.46875 10.0312L8.95313 8.5C9.05729 8.38542 9.17708 8.30469 9.3125 8.25781C9.44792 8.21094 9.58333 8.20312 9.71875 8.23437L11.5781 8.64062C11.7376 8.67578 11.8686 8.75488 11.9712 8.87794C12.0737 9.00098 12.125 9.14583 12.125 9.3125V11.4219C12.125 11.6228 12.058 11.7902 11.9241 11.9241C11.7902 12.058 11.6228 12.125 11.4219 12.125ZM2.57813 4.8125L3.84375 3.53125L3.48438 1.8125H1.8125C1.8125 2.21875 1.875 2.66406 2 3.14844C2.125 3.63281 2.31771 4.1875 2.57813 4.8125ZM8.34375 10.4844C8.77084 10.6823 9.23438 10.8437 9.73438 10.9687C10.2344 11.0937 10.7188 11.1667 11.1875 11.1875V9.51562L9.57813 9.1875L8.34375 10.4844Z" fill="black"/>
</svg>
