<svg width="98" height="12" viewBox="0 0 98 12" fill="none" xmlns="http://www.w3.org/2000/svg">
<path d="M0.833333 11C0.611111 11 0.416667 10.9083 0.25 10.725C0.0833333 10.5417 0 10.3278 0 10.0833V0.916667C0 0.672222 0.0833333 0.458333 0.25 0.275C0.416667 0.0916667 0.611111 0 0.833333 0H7.25L10 3.025V10.0833C10 10.3278 9.91667 10.5417 9.75 10.725C9.58333 10.9083 9.38889 11 9.16667 11H0.833333ZM0.833333 10.0833H9.16667V3.53572H6.79167V0.916667H0.833333V10.0833ZM2.20833 8.3875H7.79167V7.47083H2.20833V8.3875ZM2.20833 3.52917H5V2.6125H2.20833V3.52917ZM2.20833 5.95833H7.79167V5.04167H2.20833V5.95833Z" fill="#25B9BE"/>
<path d="M18.4347 1.72727L20.4588 7.65057H20.5405L22.5646 1.72727H23.7507L21.1335 9H19.8658L17.2486 1.72727H18.4347ZM24.7157 9V3.54545H25.7775V9H24.7157ZM25.252 2.70384C25.0673 2.70384 24.9087 2.64228 24.7761 2.51918C24.6459 2.3937 24.5808 2.24455 24.5808 2.07173C24.5808 1.89654 24.6459 1.7474 24.7761 1.62429C24.9087 1.49882 25.0673 1.43608 25.252 1.43608C25.4366 1.43608 25.594 1.49882 25.7243 1.62429C25.8568 1.7474 25.9231 1.89654 25.9231 2.07173C25.9231 2.24455 25.8568 2.3937 25.7243 2.51918C25.594 2.64228 25.4366 2.70384 25.252 2.70384ZM29.5568 9.11009C29.0194 9.11009 28.5566 8.99527 28.1683 8.76562C27.7824 8.53362 27.4841 8.2081 27.2734 7.78906C27.0651 7.36766 26.9609 6.87405 26.9609 6.30824C26.9609 5.74953 27.0651 5.2571 27.2734 4.83097C27.4841 4.40483 27.7777 4.07221 28.1541 3.8331C28.5329 3.59399 28.9756 3.47443 29.4822 3.47443C29.79 3.47443 30.0883 3.52533 30.3771 3.62713C30.666 3.72893 30.9252 3.88873 31.1548 4.10653C31.3845 4.32434 31.5656 4.60724 31.6982 4.95526C31.8307 5.3009 31.897 5.72112 31.897 6.21591V6.59233H27.5611V5.79688H30.8565C30.8565 5.51752 30.7997 5.27012 30.6861 5.05469C30.5724 4.83688 30.4126 4.66525 30.2067 4.53977C30.0031 4.4143 29.764 4.35156 29.4893 4.35156C29.1911 4.35156 28.9306 4.42495 28.7081 4.57173C28.4879 4.71615 28.3175 4.90554 28.1967 5.13991C28.0784 5.37192 28.0192 5.62405 28.0192 5.89631V6.51776C28.0192 6.88234 28.0831 7.19247 28.2109 7.44815C28.3411 7.70384 28.5223 7.89915 28.7543 8.03409C28.9863 8.16667 29.2573 8.23295 29.5675 8.23295C29.7687 8.23295 29.9522 8.20455 30.1179 8.14773C30.2836 8.08854 30.4268 8.00095 30.5476 7.88494C30.6683 7.76894 30.7607 7.62571 30.8246 7.45526L31.8295 7.63636C31.7491 7.93229 31.6046 8.19152 31.3963 8.41406C31.1903 8.63423 30.9311 8.80587 30.6186 8.92898C30.3085 9.04972 29.9545 9.11009 29.5568 9.11009ZM34.2479 9L32.6428 3.54545H33.7401L34.8089 7.55114H34.8622L35.9347 3.54545H37.032L38.0973 7.53338H38.1506L39.2124 3.54545H40.3097L38.7081 9H37.625L36.517 5.06179H36.4354L35.3274 9H34.2479ZM50.0895 4.09233H48.9815C48.9389 3.85559 48.8596 3.64725 48.7436 3.46733C48.6276 3.28741 48.4856 3.13471 48.3175 3.00923C48.1494 2.88376 47.9612 2.78906 47.7528 2.72514C47.5469 2.66122 47.3279 2.62926 47.0959 2.62926C46.6768 2.62926 46.3016 2.73461 45.9702 2.94531C45.6411 3.15601 45.3807 3.46496 45.1889 3.87216C44.9995 4.27936 44.9048 4.77652 44.9048 5.36364C44.9048 5.95549 44.9995 6.45502 45.1889 6.86222C45.3807 7.26941 45.6423 7.57718 45.9737 7.78551C46.3052 7.99384 46.678 8.09801 47.0923 8.09801C47.322 8.09801 47.5398 8.06723 47.7457 8.00568C47.9541 7.94176 48.1423 7.84825 48.3104 7.72514C48.4785 7.60204 48.6205 7.4517 48.7365 7.27415C48.8549 7.09422 48.9366 6.88826 48.9815 6.65625L50.0895 6.6598C50.0303 7.01728 49.9155 7.34635 49.745 7.64702C49.5769 7.94531 49.3603 8.20336 49.0952 8.42116C48.8324 8.6366 48.5317 8.8035 48.1932 8.92188C47.8546 9.04025 47.4853 9.09943 47.0852 9.09943C46.4555 9.09943 45.8944 8.95028 45.402 8.65199C44.9096 8.35133 44.5213 7.92164 44.2372 7.36293C43.9555 6.80421 43.8146 6.13778 43.8146 5.36364C43.8146 4.58712 43.9567 3.92069 44.2408 3.36435C44.5249 2.80563 44.9131 2.37713 45.4055 2.07884C45.898 1.77817 46.4579 1.62784 47.0852 1.62784C47.4711 1.62784 47.831 1.68348 48.1648 1.79474C48.5009 1.90365 48.8028 2.06463 49.0703 2.2777C49.3378 2.4884 49.5592 2.74645 49.7344 3.05185C49.9096 3.35488 50.0279 3.7017 50.0895 4.09233ZM52.9047 9.12074C52.559 9.12074 52.2465 9.05682 51.9672 8.92898C51.6878 8.79877 51.4664 8.61056 51.3031 8.36435C51.1421 8.11813 51.0616 7.81629 51.0616 7.45881C51.0616 7.15104 51.1208 6.89773 51.2392 6.69886C51.3575 6.5 51.5173 6.34257 51.7186 6.22656C51.9198 6.11056 52.1447 6.02296 52.3933 5.96378C52.6419 5.90459 52.8952 5.85961 53.1532 5.82884C53.4799 5.79096 53.7451 5.76018 53.9487 5.73651C54.1523 5.71046 54.3002 5.66903 54.3926 5.61222C54.4849 5.5554 54.5311 5.46307 54.5311 5.33523V5.31037C54.5311 5.00024 54.4435 4.75994 54.2683 4.58949C54.0955 4.41903 53.8374 4.33381 53.4941 4.33381C53.1367 4.33381 52.8549 4.41312 52.649 4.57173C52.4454 4.72798 52.3045 4.90199 52.2264 5.09375L51.2285 4.86648C51.3469 4.53504 51.5197 4.26752 51.747 4.06392C51.9766 3.85795 52.2406 3.70881 52.5389 3.61648C52.8372 3.52178 53.1509 3.47443 53.4799 3.47443C53.6977 3.47443 53.9286 3.50047 54.1724 3.55256C54.4186 3.60227 54.6483 3.6946 54.8613 3.82955C55.0768 3.96449 55.2531 4.15743 55.3904 4.40838C55.5278 4.65696 55.5964 4.98011 55.5964 5.37784V9H54.5595V8.25426H54.5169C54.4482 8.39157 54.3452 8.52652 54.2079 8.65909C54.0706 8.79167 53.8942 8.90175 53.6788 8.98935C53.4634 9.07694 53.2053 9.12074 52.9047 9.12074ZM53.1355 8.26847C53.429 8.26847 53.68 8.21046 53.8883 8.09446C54.099 7.97846 54.2588 7.82694 54.3677 7.63991C54.479 7.45052 54.5346 7.24811 54.5346 7.03267V6.32955C54.4967 6.36742 54.4234 6.40294 54.3145 6.43608C54.2079 6.46686 54.086 6.49408 53.9487 6.51776C53.8114 6.53906 53.6776 6.55919 53.5474 6.57812C53.4172 6.5947 53.3083 6.6089 53.2207 6.62074C53.0147 6.64678 52.8265 6.69058 52.6561 6.75213C52.488 6.81368 52.353 6.90246 52.2512 7.01847C52.1518 7.1321 52.1021 7.28362 52.1021 7.47301C52.1021 7.7358 52.1992 7.93466 52.3933 8.0696C52.5874 8.20218 52.8348 8.26847 53.1355 8.26847ZM61.098 4.87713L60.1357 5.04759C60.0954 4.92448 60.0315 4.80729 59.9439 4.69602C59.8587 4.58475 59.7427 4.49361 59.5959 4.42259C59.4491 4.35156 59.2656 4.31605 59.0455 4.31605C58.7448 4.31605 58.4938 4.38352 58.2926 4.51847C58.0914 4.65104 57.9908 4.82268 57.9908 5.03338C57.9908 5.21567 58.0582 5.36245 58.1932 5.47372C58.3281 5.58499 58.5459 5.67614 58.8466 5.74716L59.7131 5.94602C60.215 6.06203 60.589 6.24077 60.8352 6.48224C61.0814 6.72372 61.2045 7.03741 61.2045 7.4233C61.2045 7.75 61.1098 8.04119 60.9205 8.29688C60.7334 8.55019 60.4718 8.74905 60.1357 8.89347C59.8018 9.03788 59.4148 9.11009 58.9744 9.11009C58.3636 9.11009 57.8653 8.97988 57.4794 8.71946C57.0935 8.45668 56.8568 8.08381 56.7692 7.60085L57.7955 7.4446C57.8594 7.71212 57.9908 7.91454 58.1896 8.05185C58.3885 8.18679 58.6477 8.25426 58.9673 8.25426C59.3153 8.25426 59.5935 8.18205 59.8018 8.03764C60.0102 7.89086 60.1143 7.71212 60.1143 7.50142C60.1143 7.33097 60.0504 7.18774 59.9226 7.07173C59.7971 6.95573 59.6042 6.86813 59.3438 6.80895L58.4205 6.60653C57.9115 6.49053 57.535 6.30587 57.2912 6.05256C57.0497 5.79924 56.929 5.47846 56.929 5.0902C56.929 4.76823 57.0189 4.48651 57.1989 4.24503C57.3788 4.00355 57.6274 3.81534 57.9446 3.6804C58.2618 3.54309 58.6252 3.47443 59.0348 3.47443C59.6243 3.47443 60.0883 3.60227 60.4268 3.85795C60.7654 4.11127 60.9891 4.45099 61.098 4.87713ZM64.7228 9.11009C64.1854 9.11009 63.7226 8.99527 63.3343 8.76562C62.9484 8.53362 62.6502 8.2081 62.4395 7.78906C62.2311 7.36766 62.127 6.87405 62.127 6.30824C62.127 5.74953 62.2311 5.2571 62.4395 4.83097C62.6502 4.40483 62.9437 4.07221 63.3201 3.8331C63.6989 3.59399 64.1416 3.47443 64.6483 3.47443C64.956 3.47443 65.2543 3.52533 65.5431 3.62713C65.832 3.72893 66.0912 3.88873 66.3208 4.10653C66.5505 4.32434 66.7316 4.60724 66.8642 4.95526C66.9967 5.3009 67.063 5.72112 67.063 6.21591V6.59233H62.7271V5.79688H66.0225C66.0225 5.51752 65.9657 5.27012 65.8521 5.05469C65.7385 4.83688 65.5787 4.66525 65.3727 4.53977C65.1691 4.4143 64.93 4.35156 64.6554 4.35156C64.3571 4.35156 64.0967 4.42495 63.8741 4.57173C63.6539 4.71615 63.4835 4.90554 63.3627 5.13991C63.2444 5.37192 63.1852 5.62405 63.1852 5.89631V6.51776C63.1852 6.88234 63.2491 7.19247 63.377 7.44815C63.5072 7.70384 63.6883 7.89915 63.9203 8.03409C64.1523 8.16667 64.4234 8.23295 64.7335 8.23295C64.9347 8.23295 65.1182 8.20455 65.2839 8.14773C65.4496 8.08854 65.5929 8.00095 65.7136 7.88494C65.8343 7.76894 65.9267 7.62571 65.9906 7.45526L66.9956 7.63636C66.9151 7.93229 66.7707 8.19152 66.5623 8.41406C66.3564 8.63423 66.0971 8.80587 65.7846 8.92898C65.4745 9.04972 65.1206 9.11009 64.7228 9.11009ZM74.9395 3.63778C74.9016 3.30161 74.7453 3.04119 74.4707 2.85653C74.1961 2.66951 73.8504 2.57599 73.4338 2.57599C73.1355 2.57599 72.8774 2.62334 72.6596 2.71804C72.4418 2.81037 72.2725 2.93821 72.1518 3.10156C72.0334 3.26255 71.9743 3.44602 71.9743 3.65199C71.9743 3.82481 72.0145 3.97396 72.095 4.09943C72.1779 4.22491 72.2856 4.33026 72.4181 4.41548C72.5531 4.49834 72.6975 4.56818 72.8514 4.625C73.0053 4.67945 73.1532 4.72443 73.2953 4.75994L74.0055 4.9446C74.2375 5.00142 74.4754 5.07836 74.7193 5.17543C74.9631 5.27249 75.1892 5.40033 75.3975 5.55895C75.6059 5.71757 75.774 5.91406 75.9018 6.14844C76.032 6.38281 76.0971 6.66335 76.0971 6.99006C76.0971 7.40199 75.9906 7.76776 75.7775 8.08736C75.5668 8.40696 75.2602 8.65909 74.8578 8.84375C74.4577 9.02841 73.9735 9.12074 73.4054 9.12074C72.8609 9.12074 72.3897 9.03433 71.992 8.86151C71.5943 8.68868 71.283 8.44366 71.0581 8.12642C70.8332 7.80682 70.7089 7.42803 70.6852 6.99006H71.786C71.8074 7.25284 71.8926 7.47183 72.0417 7.64702C72.1932 7.81984 72.3862 7.94886 72.6206 8.03409C72.8573 8.11695 73.1165 8.15838 73.3983 8.15838C73.7084 8.15838 73.9842 8.10985 74.2257 8.01278C74.4695 7.91335 74.6613 7.77604 74.801 7.60085C74.9406 7.4233 75.0105 7.21615 75.0105 6.9794C75.0105 6.76397 74.9489 6.58759 74.8258 6.45028C74.7051 6.31297 74.5405 6.19934 74.3322 6.10938C74.1262 6.01941 73.8931 5.9401 73.6326 5.87145L72.7733 5.63707C72.1909 5.47846 71.7292 5.24527 71.3883 4.9375C71.0498 4.62973 70.8805 4.22254 70.8805 3.71591C70.8805 3.29687 70.9941 2.93111 71.2214 2.61861C71.4487 2.30611 71.7565 2.06345 72.1447 1.89062C72.533 1.71544 72.9709 1.62784 73.4586 1.62784C73.9511 1.62784 74.3855 1.71425 74.7619 1.88707C75.1407 2.0599 75.439 2.29782 75.6568 2.60085C75.8746 2.90151 75.9882 3.24716 75.9977 3.63778H74.9395ZM79.8693 3.54545V4.39773H76.8899V3.54545H79.8693ZM77.6889 2.23864H78.7507V7.39844C78.7507 7.6044 78.7815 7.75947 78.843 7.86364C78.9046 7.96544 78.9839 8.03527 79.081 8.07315C79.1804 8.10866 79.2881 8.12642 79.4041 8.12642C79.4893 8.12642 79.5639 8.1205 79.6278 8.10866C79.6918 8.09683 79.7415 8.08736 79.777 8.08026L79.9688 8.95739C79.9072 8.98106 79.8196 9.00473 79.706 9.02841C79.5923 9.05445 79.4503 9.06866 79.2798 9.07102C79.0005 9.07576 78.7401 9.02604 78.4986 8.92188C78.2571 8.81771 78.0618 8.65672 77.9126 8.43892C77.7635 8.22112 77.6889 7.94768 77.6889 7.61861V2.23864ZM84.4991 6.73793V3.54545H85.5645V9H84.5204V8.0554H84.4636C84.3381 8.34659 84.1369 8.58925 83.8599 8.78338C83.5853 8.97514 83.2432 9.07102 82.8336 9.07102C82.4833 9.07102 82.1731 8.99408 81.9032 8.8402C81.6357 8.68395 81.425 8.45312 81.2711 8.14773C81.1196 7.84233 81.0439 7.46473 81.0439 7.01491V3.54545H82.1056V6.88707C82.1056 7.25876 82.2086 7.55469 82.4146 7.77486C82.6206 7.99503 82.8881 8.10511 83.2172 8.10511C83.416 8.10511 83.6137 8.0554 83.8102 7.95597C84.0091 7.85653 84.1736 7.7062 84.3038 7.50497C84.4364 7.30374 84.5015 7.04806 84.4991 6.73793ZM89.033 9.10653C88.5927 9.10653 88.1997 8.99408 87.854 8.76918C87.5108 8.5419 87.2409 8.21875 87.0444 7.79972C86.8503 7.37831 86.7532 6.87287 86.7532 6.28338C86.7532 5.69389 86.8514 5.18963 87.0479 4.7706C87.2468 4.35156 87.5191 4.03078 87.8647 3.80824C88.2103 3.5857 88.6022 3.47443 89.0401 3.47443C89.3787 3.47443 89.6509 3.53125 89.8569 3.64489C90.0652 3.75616 90.2262 3.88636 90.3398 4.03551C90.4558 4.18466 90.5458 4.31605 90.6097 4.42969H90.6737V1.72727H91.7354V9H90.6985V8.15128H90.6097C90.5458 8.26728 90.4535 8.39986 90.3327 8.54901C90.2144 8.69815 90.051 8.82836 89.8427 8.93963C89.6344 9.0509 89.3645 9.10653 89.033 9.10653ZM89.2674 8.20099C89.5728 8.20099 89.8308 8.1205 90.0415 7.95952C90.2546 7.79616 90.4156 7.57008 90.5245 7.28125C90.6358 6.99242 90.6914 6.65625 90.6914 6.27273C90.6914 5.89394 90.637 5.5625 90.5281 5.27841C90.4192 4.99432 90.2594 4.77296 90.0487 4.61435C89.8379 4.45573 89.5775 4.37642 89.2674 4.37642C88.9478 4.37642 88.6815 4.45928 88.4684 4.625C88.2553 4.79072 88.0943 5.01681 87.9854 5.30327C87.8789 5.58973 87.8256 5.91288 87.8256 6.27273C87.8256 6.63731 87.8801 6.9652 87.989 7.25639C88.0979 7.54759 88.2589 7.77841 88.4719 7.94886C88.6874 8.11695 88.9525 8.20099 89.2674 8.20099ZM93.9221 11.0455C93.7634 11.0455 93.619 11.0324 93.4888 11.0064C93.3586 10.9827 93.2615 10.9567 93.1976 10.9283L93.4533 10.0582C93.6474 10.1103 93.8203 10.1328 93.9718 10.1257C94.1233 10.1186 94.257 10.0618 94.373 9.95526C94.4914 9.84872 94.5956 9.67472 94.6855 9.43324L94.8169 9.07102L92.8212 3.54545H93.9576L95.339 7.77841H95.3958L96.7772 3.54545H97.9171L95.6692 9.72798C95.565 10.0121 95.4325 10.2524 95.2715 10.4489C95.1105 10.6477 94.9187 10.7969 94.6962 10.8963C94.4737 10.9957 94.2156 11.0455 93.9221 11.0455Z" fill="#25B9BE"/>
</svg>
