<svg width="1328" height="591" viewBox="0 0 1328 591" fill="none" xmlns="http://www.w3.org/2000/svg">
<path d="M64.8427 446.135C64.5985 446.753 51.4919 444.357 38.5224 437.403C27.4111 431.445 20.0967 424.163 15.9015 419.267C11.0766 413.633 4.19575 405.601 1.39004 393.07C-2.72605 374.693 4.91731 360.007 6.93793 356.395C12.1653 347.049 19.1535 341.315 24.4373 337.453C60.2339 311.297 101.724 302.467 123.884 297.957C145.637 293.53 161.223 293.039 184.065 291.911C200.072 291.121 219.423 291.835 219.49 293.121C219.537 293.994 210.672 294.683 198.577 296.749C184.235 299.197 174.688 301.986 156.749 307.226C130.665 314.846 112.474 320.471 90.1662 331.407C63.3742 344.543 45.3877 353.67 36.602 373.121C34.5362 377.693 30.5571 386.933 31.907 398.511C35.1222 426.082 66.6205 444.254 64.8427 446.135C63.9475 447.082 56.1545 442.274 56.2759 442.058C56.4002 441.841 65.0503 445.609 64.8427 446.135Z" fill="#087DC1"/>
<path d="M409.99 139.167C406.326 133.599 403.229 131.344 404.015 130.3C405.616 128.173 421.287 133.808 432.966 144.228C436.25 147.16 445.195 155.393 449.476 169.347C455.012 187.389 448.532 202.565 446.798 206.308C442.312 215.992 435.79 222.195 430.819 226.413C397.156 254.983 356.467 266.668 334.716 272.704C313.367 278.629 297.862 280.2 275.169 282.911C259.267 284.808 239.913 285.44 239.745 284.163C239.632 283.296 248.418 281.992 260.32 279.093C274.433 275.656 283.736 272.212 301.218 265.741C326.639 256.331 344.345 249.459 365.74 237.004C391.436 222.045 408.666 211.693 415.912 191.687C420.18 179.908 418.739 167.313 418.618 166.039C418.111 160.696 417.093 149.955 409.99 139.167Z" fill="#038956"/>
<path d="M80.9454 367.564C77.6779 386.065 81.4509 396.633 90.3707 438.075C96.2038 465.172 99.1437 478.959 100.263 490.601C102.904 518.059 100.052 531.177 103.603 531.98C110.127 533.452 126.646 490.739 136.105 459.231C150.629 410.859 148.253 389.761 146.928 381.249C145.238 370.401 139.954 336.461 119.822 331.588C109.316 329.043 99.059 335.433 97.1951 336.692C93.6156 339.108 84.7381 346.093 80.9454 367.564Z" fill="#087DC1"/>
<path d="M328.643 312.74C325.375 331.241 329.148 341.809 338.068 383.25C343.901 410.348 346.84 424.134 347.961 435.777C350.601 463.234 347.749 476.353 351.3 477.156C357.824 478.628 374.343 435.914 383.802 404.408C398.327 356.034 395.95 334.937 394.624 326.425C392.935 315.577 387.65 281.637 367.519 276.764C357.012 274.218 346.756 280.609 344.891 281.868C341.313 284.284 332.435 291.269 328.643 312.74Z" fill="#038956"/>
<path d="M49.543 271.086C49.543 255.317 63.0816 242.531 79.7846 242.531C96.4847 242.531 110.025 255.317 110.025 271.086C110.025 286.857 96.4847 299.642 79.7846 299.642C63.0816 299.642 49.543 286.857 49.543 271.086Z" fill="#087DC1"/>
<path d="M302.785 213.977C302.785 198.206 316.324 185.421 333.027 185.421C349.727 185.421 363.267 198.206 363.267 213.977C363.267 229.747 349.727 242.531 333.027 242.531C316.324 242.531 302.785 229.747 302.785 213.977Z" fill="#038956"/>
<path d="M394.638 129.99C395.156 127.908 391.363 125.252 388.62 123.329C385.046 120.824 381.424 119.346 377.561 118.166C370.693 116.069 365.114 115.54 364.041 115.444C354.658 114.61 333.272 113.25 304.882 112.108C304.882 112.108 291.244 112.126 250.809 109.284C218.464 107.01 134.971 101.141 102.61 52.9062C86.4313 28.7929 87.4437 0.69292 86.1898 0.859586C85.2395 0.986253 81.3649 30.0716 92.9492 56.3036C92.9492 56.3036 130.357 141.01 381.622 133.402C384.286 133.321 393.881 133.032 394.638 129.99Z" fill="#BADA90"/>
<path d="M379.005 590.333C377.736 590.333 380.008 562.361 364.896 537.675C334.673 488.173 251.49 479.017 219.328 475.481C179.006 471.063 165.366 470.557 165.366 470.557C161.353 470.241 157.475 469.924 153.73 469.609C156.138 464.243 157.475 458.245 157.475 451.993C157.475 451.047 157.475 450.099 157.342 449.152C347.311 464.559 374.659 534.643 374.659 534.643C385.091 561.289 379.942 590.207 379.005 590.333Z" fill="#25B9BE"/>
<path d="M540.53 402.368V407.113H466.014V402.368H472.17C479.352 402.368 484.568 400.273 487.817 396.083C489.869 393.347 490.895 386.764 490.895 376.332V263.981C490.895 255.174 490.339 249.36 489.228 246.538C488.373 244.4 486.62 242.562 483.969 241.023C480.207 238.971 476.274 237.945 472.17 237.945H466.014V233.199H540.53V237.945H534.245C527.149 237.945 521.976 240.04 518.727 244.229C516.589 246.965 515.52 253.549 515.52 263.981V376.332C515.52 385.139 516.076 390.953 517.187 393.775C518.043 395.912 519.838 397.751 522.574 399.29C526.251 401.342 530.141 402.368 534.245 402.368H540.53ZM638.132 393.903C632.403 399.888 626.803 404.206 621.331 406.857C615.858 409.422 609.959 410.705 603.632 410.705C590.806 410.705 579.605 405.361 570.029 394.673C560.452 383.899 555.664 370.09 555.664 353.246C555.664 336.402 560.965 321.011 571.568 307.074C582.17 293.052 595.808 286.04 612.481 286.04C622.827 286.04 631.377 289.332 638.132 295.916V274.241C638.132 260.817 637.79 252.566 637.106 249.488C636.508 246.41 635.524 244.315 634.156 243.203C632.788 242.092 631.078 241.536 629.026 241.536C626.803 241.536 623.853 242.22 620.176 243.588L618.509 239.099L653.523 224.735H659.294V360.557C659.294 374.323 659.594 382.745 660.192 385.823C660.876 388.816 661.902 390.91 663.27 392.108C664.724 393.305 666.391 393.903 668.272 393.903C670.581 393.903 673.659 393.176 677.507 391.723L678.917 396.212L644.032 410.705H638.132V393.903ZM638.132 384.925V324.389C637.619 318.575 636.08 313.273 633.515 308.485C630.95 303.697 627.53 300.106 623.255 297.712C619.065 295.232 614.961 293.992 610.942 293.992C603.418 293.992 596.706 297.37 590.806 304.124C583.025 313.017 579.135 326.013 579.135 343.114C579.135 360.386 582.897 373.639 590.421 382.873C597.946 392.022 606.325 396.596 615.559 396.596C623.34 396.596 630.864 392.706 638.132 384.925ZM706.236 333.88C706.15 351.322 710.383 365.003 718.933 374.921C727.483 384.84 737.53 389.799 749.073 389.799C756.768 389.799 763.437 387.704 769.081 383.514C774.809 379.239 779.598 371.971 783.445 361.711L787.421 364.276C785.626 375.99 780.41 386.678 771.774 396.34C763.138 405.916 752.322 410.705 739.326 410.705C725.217 410.705 713.119 405.232 703.029 394.288C693.025 383.258 688.023 368.466 688.023 349.912C688.023 329.818 693.154 314.171 703.414 302.97C713.76 291.684 726.714 286.04 742.275 286.04C755.443 286.04 766.259 290.401 774.724 299.123C783.189 307.758 787.421 319.344 787.421 333.88H706.236ZM706.236 326.441H760.616C760.188 318.917 759.291 313.615 757.923 310.537C755.785 305.749 752.579 301.987 748.303 299.251C744.114 296.515 739.71 295.147 735.093 295.147C727.996 295.147 721.626 297.925 715.983 303.483C710.425 308.955 707.176 316.608 706.236 326.441ZM869.761 390.184C857.705 399.504 850.138 404.89 847.06 406.344C842.443 408.481 837.526 409.55 832.311 409.55C824.188 409.55 817.476 406.771 812.174 401.214C806.959 395.656 804.351 388.345 804.351 379.282C804.351 373.553 805.633 368.594 808.199 364.404C811.704 358.59 817.775 353.118 826.411 347.988C835.132 342.858 849.582 336.616 869.761 329.262V324.645C869.761 312.931 867.88 304.894 864.118 300.533C860.441 296.173 855.054 293.992 847.958 293.992C842.571 293.992 838.296 295.446 835.132 298.353C831.883 301.26 830.258 304.595 830.258 308.357L830.515 315.796C830.515 319.729 829.489 322.764 827.437 324.902C825.47 327.039 822.862 328.108 819.613 328.108C816.45 328.108 813.842 326.997 811.79 324.774C809.823 322.55 808.84 319.515 808.84 315.667C808.84 308.314 812.602 301.559 820.126 295.403C827.651 289.247 838.21 286.169 851.805 286.169C862.237 286.169 870.787 287.922 877.456 291.427C882.501 294.078 886.22 298.225 888.615 303.868C890.154 307.545 890.923 315.069 890.923 326.441V366.328C890.923 377.529 891.137 384.412 891.564 386.977C891.992 389.457 892.676 391.124 893.617 391.979C894.643 392.834 895.797 393.262 897.079 393.262C898.447 393.262 899.645 392.963 900.671 392.364C902.466 391.253 905.929 388.132 911.059 383.001V390.184C901.483 403.009 892.334 409.422 883.613 409.422C879.423 409.422 876.088 407.968 873.609 405.061C871.129 402.154 869.847 397.195 869.761 390.184ZM869.761 381.847V337.086C856.85 342.216 848.513 345.85 844.751 347.988C837.997 351.75 833.166 355.683 830.258 359.787C827.351 363.891 825.898 368.38 825.898 373.254C825.898 379.41 827.736 384.54 831.413 388.645C835.089 392.663 839.322 394.673 844.11 394.673C850.608 394.673 859.159 390.397 869.761 381.847ZM1062.27 359.018L1066.5 359.915L1051.63 407.113H916.959V402.368H923.5C930.853 402.368 936.112 399.974 939.275 395.186C941.071 392.45 941.969 386.122 941.969 376.204V263.981C941.969 253.122 940.772 246.324 938.378 243.588C935.043 239.826 930.084 237.945 923.5 237.945H916.959V233.199H995.708V237.945C986.473 237.859 979.975 238.714 976.213 240.51C972.536 242.305 970.014 244.571 968.646 247.307C967.278 250.044 966.594 256.585 966.594 266.93V376.204C966.594 383.301 967.278 388.174 968.646 390.825C969.672 392.621 971.254 393.946 973.391 394.801C975.529 395.656 982.198 396.083 993.399 396.083H1006.1C1019.43 396.083 1028.8 395.1 1034.18 393.134C1039.57 391.167 1044.49 387.704 1048.93 382.745C1053.38 377.7 1057.83 369.791 1062.27 359.018ZM1110.37 224.735C1113.96 224.735 1116.99 226.017 1119.47 228.582C1122.04 231.062 1123.32 234.097 1123.32 237.688C1123.32 241.279 1122.04 244.358 1119.47 246.923C1116.99 249.488 1113.96 250.77 1110.37 250.77C1106.78 250.77 1103.7 249.488 1101.13 246.923C1098.57 244.358 1097.29 241.279 1097.29 237.688C1097.29 234.097 1098.53 231.062 1101.01 228.582C1103.57 226.017 1106.69 224.735 1110.37 224.735ZM1121.01 286.169V380.565C1121.01 387.918 1121.53 392.834 1122.55 395.314C1123.66 397.708 1125.25 399.504 1127.3 400.701C1129.44 401.898 1133.28 402.496 1138.84 402.496V407.113H1081.77V402.496C1087.5 402.496 1091.34 401.94 1093.31 400.829C1095.28 399.717 1096.82 397.879 1097.93 395.314C1099.12 392.749 1099.72 387.832 1099.72 380.565V335.29C1099.72 322.55 1099.34 314.299 1098.57 310.537C1097.97 307.801 1097.03 305.92 1095.75 304.894C1094.46 303.782 1092.71 303.227 1090.49 303.227C1088.09 303.227 1085.19 303.868 1081.77 305.151L1079.97 300.533L1115.37 286.169H1121.01ZM1187.71 251.027V289.632H1215.15V298.61H1187.71V374.793C1187.71 382.403 1188.77 387.533 1190.91 390.184C1193.14 392.834 1195.96 394.16 1199.38 394.16C1202.2 394.16 1204.93 393.305 1207.59 391.595C1210.24 389.799 1212.29 387.191 1213.74 383.771H1218.74C1215.75 392.15 1211.52 398.478 1206.05 402.753C1200.57 406.942 1194.93 409.037 1189.12 409.037C1185.18 409.037 1181.34 407.968 1177.57 405.831C1173.81 403.608 1171.03 400.487 1169.24 396.468C1167.44 392.364 1166.54 386.08 1166.54 377.615V298.61H1147.95V294.377C1152.65 292.496 1157.44 289.332 1162.31 284.886C1167.27 280.355 1171.67 275.011 1175.52 268.854C1177.49 265.605 1180.22 259.663 1183.73 251.027H1187.71ZM1246.45 333.88C1246.36 351.322 1250.59 365.003 1259.14 374.921C1267.69 384.84 1277.74 389.799 1289.28 389.799C1296.98 389.799 1303.65 387.704 1309.29 383.514C1315.02 379.239 1319.81 371.971 1323.66 361.711L1327.63 364.276C1325.84 375.99 1320.62 386.678 1311.98 396.34C1303.35 405.916 1292.53 410.705 1279.54 410.705C1265.43 410.705 1253.33 405.232 1243.24 394.288C1233.24 383.258 1228.23 368.466 1228.23 349.912C1228.23 329.818 1233.36 314.171 1243.62 302.97C1253.97 291.684 1266.92 286.04 1282.49 286.04C1295.65 286.04 1306.47 290.401 1314.93 299.123C1323.4 307.758 1327.63 319.344 1327.63 333.88H1246.45ZM1246.45 326.441H1300.83C1300.4 318.917 1299.5 313.615 1298.13 310.537C1296 305.749 1292.79 301.987 1288.51 299.251C1284.32 296.515 1279.92 295.147 1275.3 295.147C1268.21 295.147 1261.84 297.925 1256.19 303.483C1250.64 308.955 1247.39 316.608 1246.45 326.441Z" fill="#14875E"/>
</svg>
